<svg width="24" height="24" viewBox="0 0 24 24" fill="none" xmlns="http://www.w3.org/2000/svg">
<path d="M4.0834 11.1655V8.66542C4.31341 8.66542 4.5001 8.47874 4.5001 8.24873C4.5001 8.01872 4.31341 7.83203 4.0834 7.83203C2.93422 7.83203 2 8.76707 2 9.91547V10.7488C2 11.438 2.56084 11.9989 3.25005 11.9989H4.0834C4.31341 11.9989 4.5001 11.8122 4.5001 11.5822C4.5001 11.3522 4.31341 11.1655 4.0834 11.1655Z" fill="#101211"/>
<path d="M19.9167 7.83203C19.6867 7.83203 19.5 8.01872 19.5 8.24873C19.5 8.47874 19.6867 8.66542 19.9167 8.66542V11.1655C19.6867 11.1655 19.5 11.3522 19.5 11.5822C19.5 11.8122 19.6867 11.9989 19.9167 11.9989H20.75C21.4393 11.9989 22.0001 11.438 22.0001 10.7488V9.91547C22.0001 8.76707 21.0659 7.83203 19.9167 7.83203Z" fill="#101211"/>
<path d="M9.08417 19.5C8.85416 19.5 8.66747 19.6867 8.66747 19.9167H6.16738C6.16738 19.6867 5.98069 19.5 5.75068 19.5C5.52067 19.5 5.33398 19.6867 5.33398 19.9167V20.75C5.33398 21.4393 5.89483 22.0001 6.58403 22.0001H8.25081C8.94002 22.0001 9.50086 21.4393 9.50086 20.75V19.9167C9.50086 19.6867 9.31418 19.5 9.08417 19.5Z" fill="#101211"/>
<path d="M18.2501 19.5C18.0201 19.5 17.8334 19.6867 17.8334 19.9167H15.3334C15.3334 19.6867 15.1467 19.5 14.9167 19.5C14.6866 19.5 14.5 19.6867 14.5 19.9167V20.75C14.5 21.4393 15.0608 22.0001 15.75 22.0001H17.4168C18.106 22.0001 18.6668 21.4393 18.6668 20.75V19.9167C18.6668 19.6867 18.4802 19.5 18.2501 19.5Z" fill="#101211"/>
<path fill-rule="evenodd" clip-rule="evenodd" d="M18.2518 2H5.75137C4.60215 2 3.66797 2.93504 3.66797 4.0834V18.2506C3.66797 19.399 4.60218 20.334 5.75137 20.334H18.2518C19.4011 20.334 20.3352 19.399 20.3352 18.2506V4.0834C20.3352 2.93504 19.4011 2 18.2518 2ZM7.41802 3.66797H16.585C17.2743 3.66797 17.8351 4.22881 17.8351 4.91802C17.8351 5.60722 17.2743 6.16806 16.585 6.16806H7.41802C6.72881 6.16806 6.16797 5.60722 6.16797 4.91802C6.16797 4.22881 6.72881 3.66797 7.41802 3.66797ZM6.16797 16.5821C6.16797 17.2713 6.72881 17.8321 7.41802 17.8321C8.10718 17.8321 8.66806 17.2713 8.66806 16.5821C8.66806 15.8929 8.10722 15.332 7.41802 15.332C6.72881 15.332 6.16797 15.8929 6.16797 16.5821ZM16.584 17.8321C15.8948 17.8321 15.334 17.2713 15.334 16.5821C15.334 15.8929 15.8948 15.332 16.584 15.332C17.2732 15.332 17.8341 15.8929 17.8341 16.5821C17.8341 17.2713 17.2732 17.8321 16.584 17.8321ZM17.4178 13.6669C18.107 13.6669 18.6679 13.1061 18.6679 12.4169H18.6678V8.25005C18.6678 7.56084 18.107 7 17.4178 7H6.58403C5.89483 7 5.33398 7.56084 5.33398 8.25005V12.4169C5.33398 13.1061 5.89483 13.6669 6.58403 13.6669H17.4178Z" fill="#101211"/>
</svg>
