<svg width="24" height="25" viewBox="0 0 24 25" fill="none" xmlns="http://www.w3.org/2000/svg">
    <path d="M2.24125 2.9751H0.799805V8.57378H2.24125V2.9751Z" fill="black"/>
    <path d="M4.97931 11.4932H1.29883V5.7688H1.73126V11.0581H4.97931V11.4932Z" fill="black"/>
    <path d="M21.7565 8.5708L23.1979 8.5708L23.1979 2.97212L21.7565 2.97212L21.7565 8.5708Z" fill="black"/>
    <path d="M22.7016 11.4971H19.0211V11.062H22.2692V5.77271H22.7016V11.4971Z" fill="black"/>
    <path d="M7.32684 24.1273H5.6836C5.03015 24.1273 4.50162 23.5955 4.50162 22.938V19.0121C4.50162 18.3546 5.03015 17.8228 5.6836 17.8228H7.32684C7.9803 17.8228 8.50882 18.3546 8.50882 19.0121V22.938C8.50882 23.5955 7.9803 24.1273 7.32684 24.1273Z" fill="#001C2B"/>
    <path d="M18.3487 24.1273H16.7054C16.052 24.1273 15.5234 23.5955 15.5234 22.938V19.0121C15.5234 18.3546 16.052 17.8228 16.7054 17.8228H18.3487C19.0021 17.8228 19.5306 18.3546 19.5306 19.0121V22.938C19.5306 23.5955 19.0021 24.1273 18.3487 24.1273Z" fill="#001C2B"/>
    <path d="M21.1918 8.57153H2.7894V21.113H21.1918V8.57153Z" fill="#20E682"/>
    <path d="M21.1918 2.85848V13.4853H2.7894V2.85848C2.7894 1.43706 3.93294 0.286377 5.34555 0.286377H18.6356C20.0483 0.286377 21.1918 1.43706 21.1918 2.85848Z" fill="black"/>
    <path opacity="0.1" d="M21.1915 2.85848V13.4853H11.9951V0.286377H18.645C20.048 0.286377 21.1915 1.43706 21.1915 2.85848Z" fill="white"/>
    <path d="M8.0843 19.2405H2.7894V17.2485L7.50772 17.7997C7.83445 17.8384 8.0843 18.1671 8.0843 18.5636V19.2405Z" fill="black"/>
    <path opacity="0.2" d="M21.1915 13.4844H11.9951V21.1137H21.1915V13.4844Z" fill="#FDFFFE"/>
    <path d="M15.8961 19.2405H21.191V17.2485L16.4727 17.7997C16.146 17.8384 15.8961 18.1671 15.8961 18.5636V19.2405Z" fill="black"/>
</svg>