<svg width="24" height="24" viewBox="0 0 24 24" fill="none" xmlns="http://www.w3.org/2000/svg">
<path d="M12 2C6.47917 2 2 6.47917 2 12C2 17.5208 6.47917 22 12 22C17.5208 22 22 17.5208 22 12C22 6.47917 17.5208 2 12 2ZM12 4.66667C15.5879 4.66667 18.575 7.25833 19.2042 10.6667H15.63C15.1658 9.875 14.3142 9.33333 13.3304 9.33333H10.6667C9.68333 9.33333 8.82917 9.875 8.37083 10.6667H4.79417C5.42375 7.25833 8.4125 4.66667 12 4.66667ZM4.79417 13.3333H8.665L10.6679 16V19.2063C7.69167 18.6583 5.34375 16.3083 4.79417 13.3333ZM13.2958 19.2042V16L15.2988 13.3333H19.1696C18.6583 16.3083 16.3083 18.6583 13.2958 19.2042Z" fill="#101211"/>
</svg>
