<svg width="56" height="56" viewBox="0 0 56 56" fill="none" xmlns="http://www.w3.org/2000/svg">
    <circle cx="28" cy="28" r="28" fill="#EDFDF5"/>
    <path d="M28 16C24.7545 16 22.1234 18.6095 22.1234 21.8286C22.1234 25.0476 24.7545 27.6571 28 27.6571C31.2455 27.6571 33.8765 25.0476 33.8765 21.8286C33.8765 18.6095 31.2455 16 28 16Z" fill="#109352"/>
    <path d="M31.4679 30.2502C29.1705 29.8866 26.8295 29.8866 24.532 30.2502L24.2858 30.2892C21.0486 30.8016 18.6667 33.5711 18.6667 36.8224C18.6667 38.5774 20.101 40 21.8704 40H34.1296C35.899 40 37.3333 38.5774 37.3333 36.8224C37.3333 33.5711 34.9514 30.8016 31.7142 30.2892L31.4679 30.2502Z" fill="#109352"/>
</svg>