<svg width="42" height="40" viewBox="0 0 42 40" fill="none" xmlns="http://www.w3.org/2000/svg">
<path d="M22.7299 1.99257C21.9591 0.664265 20.0409 0.664259 19.2701 1.99257L13.842 11.3472C13.4613 12.0034 12.8032 12.4511 12.0531 12.5644L1.88043 14.1009C0.17186 14.3589 -0.42746 16.5162 0.903151 17.6186L8.48133 23.897C9.18282 24.4782 9.51266 25.3949 9.34225 26.2898L7.35992 36.7001C7.04655 38.3457 8.77413 39.6243 10.2564 38.8439L19.8352 33.8002C20.5643 33.4163 21.4357 33.4163 22.1648 33.8002L31.7436 38.8439C33.2259 39.6243 34.9534 38.3457 34.6401 36.7001L32.6577 26.2898C32.4873 25.3949 32.8172 24.4782 33.5187 23.897L41.0968 17.6186C42.4274 16.5162 41.8281 14.3589 40.1196 14.1009L29.9469 12.5644C29.1968 12.4511 28.5387 12.0034 28.158 11.3472L22.7299 1.99257Z" fill="#E5E9F2"/>
</svg>
