<svg width="24" height="24" viewBox="0 0 24 24" fill="none" xmlns="http://www.w3.org/2000/svg">
<path d="M12 3C9.56586 3 7.59259 4.95716 7.59259 7.37143C7.59259 9.7857 9.56586 11.7429 12 11.7429C14.4341 11.7429 16.4074 9.7857 16.4074 7.37143C16.4074 4.95716 14.4341 3 12 3Z" fill="#101211"/>
<path d="M14.601 13.6877C12.8779 13.4149 11.1221 13.4149 9.39904 13.6877L9.21435 13.7169C6.78647 14.1012 5 16.1783 5 18.6168C5 19.933 6.07576 21 7.40278 21H16.5972C17.9242 21 19 19.933 19 18.6168C19 16.1783 17.2135 14.1012 14.7857 13.7169L14.601 13.6877Z" fill="#101211"/>
</svg>
